<svg width="61" height="61" viewBox="0 0 61 61" fill="none" xmlns="http://www.w3.org/2000/svg">
<rect x="0.335007" y="0.76123" width="60" height="60" rx="20" fill="white"/>
<path d="M46.3351 31.1297C46.3351 30.0024 46.2444 28.8752 46.063 27.771H30.6667V34.1433H39.4873C39.1245 36.1907 37.9454 38.031 36.2221 39.1812V43.3221H41.4827C44.5664 40.4465 46.3351 36.1907 46.3351 31.1297Z" fill="#4285F4"/>
<path d="M30.6674 47.3252C35.0663 47.3252 38.785 45.8529 41.4834 43.3224L36.2228 39.1816C34.7489 40.1938 32.8669 40.7689 30.6674 40.7689C26.4045 40.7689 22.7992 37.8473 21.5067 33.9365H16.0874V38.2154C18.8538 43.8055 24.4998 47.3252 30.6674 47.3252Z" fill="#34A853"/>
<path d="M21.5071 33.9366C20.8268 31.8892 20.8268 29.6578 21.5071 27.5874V23.3315H16.0869C13.751 28.0015 13.751 33.5226 16.0869 38.1925L21.5071 33.9366Z" fill="#FBBC04"/>
<path d="M30.6674 20.755C33.0029 20.709 35.2478 21.6062 36.9257 23.2395L41.5967 18.5006C38.6263 15.694 34.7262 14.1527 30.6674 14.1988C24.4998 14.1988 18.8538 17.7415 16.0874 23.3316L21.5067 27.6104C22.7992 23.6766 26.4045 20.755 30.6674 20.755Z" fill="#EA4335"/>
</svg>
