<svg width="60" height="60" viewBox="0 0 60 60" fill="none" xmlns="http://www.w3.org/2000/svg">
<path d="M0 20C0 8.9543 8.95431 0 20 0H40C51.0457 0 60 8.95431 60 20V40C60 51.0457 51.0457 60 40 60H20C8.9543 60 0 51.0457 0 40V20Z" fill="#FEE500"/>
<path d="M30.3607 17C21.0271 17 13.5 23.0216 13.5 30.332C13.5 35.0771 16.6313 39.232 21.3282 41.6046L19.7385 47.542C19.7085 47.631 19.7039 47.7265 19.7252 47.818C19.7464 47.9094 19.7927 47.9932 19.8589 48.0598C19.9554 48.1449 20.0795 48.192 20.2082 48.1923C20.3148 48.1837 20.416 48.1416 20.4972 48.0719L27.3379 43.4593C28.3476 43.5987 29.3655 43.671 30.3848 43.676C39.7064 43.676 47.2456 37.6544 47.2456 30.332C47.2456 23.0096 39.6823 17 30.3607 17Z" fill="#392020"/>
</svg>
